<?xml version="1.0" standalone="no"?>
<!DOCTYPE svg PUBLIC "-//W3C//DTD SVG 20010904//EN"
 "http://www.w3.org/TR/2001/REC-SVG-20010904/DTD/svg10.dtd">
<svg version="1.0" xmlns="http://www.w3.org/2000/svg"
 width="600.000000pt" height="600.000000pt" viewBox="0 0 600.000000 600.000000"
 preserveAspectRatio="xMidYMid meet">

<g transform="translate(0.000000,600.000000) scale(0.100000,-0.100000)"
fill="#000000" stroke="none">
<path d="M1039 4597 c-51 -27 -96 -86 -109 -143 -15 -61 -13 -2264 2 -2321 15
-60 87 -137 143 -152 55 -15 1155 -15 1209 0 21 6 58 29 82 51 69 64 74 91 74
435 l0 293 235 0 236 0 -22 -29 c-44 -60 3 -141 81 -141 90 0 122 129 43 171
l-24 13 25 13 c13 7 34 28 45 47 46 73 17 147 -89 227 -38 30 -70 58 -70 63 0
5 79 213 176 461 l176 452 120 21 c66 12 126 26 134 33 19 16 17 43 -5 63 -17
16 -26 15 -147 -5 -71 -12 -139 -25 -151 -30 -16 -6 -36 -46 -84 -168 l-62
-161 -121 0 c-67 0 -205 -3 -308 -7 l-187 -6 -3 344 -3 344 -25 45 c-14 24
-45 58 -68 75 l-44 30 -607 3 -607 2 -45 -23z m1241 -56 c19 -10 45 -33 58
-51 22 -33 22 -37 22 -371 0 -332 0 -339 -20 -339 -19 0 -20 7 -20 250 l0 250
-640 0 -640 0 0 -940 0 -940 640 0 640 0 0 180 c0 175 1 180 20 180 21 0 21
-4 18 -319 l-3 -320 -35 -36 c-19 -19 -51 -40 -72 -46 -24 -6 -240 -9 -592 -7
-545 3 -555 3 -583 24 -15 11 -38 36 -50 54 l-23 33 0 1156 0 1156 24 36 c48
71 27 69 656 69 531 0 567 -1 600 -19z m-20 -556 l0 -215 -167 0 c-93 0 -178
-3 -191 -6 -12 -4 -25 -17 -28 -29 -5 -22 51 -531 62 -560 8 -21 25 -24 180
-37 l144 -11 0 -139 0 -138 -168 0 c-178 0 -192 -4 -192 -47 0 -28 27 -43 76
-43 35 0 36 -1 21 -17 -37 -42 -25 -117 22 -143 26 -14 82 -12 102 3 39 30 51
96 23 135 l-15 22 65 0 66 0 0 -145 0 -145 -580 0 -580 0 0 865 0 865 580 0
580 0 0 -215z m580 -350 l0 -85 -80 0 -80 0 0 79 c0 91 -4 87 103 90 l57 1 0
-85z m176 68 c-4 -10 -19 -48 -33 -85 l-26 -68 -44 0 -43 0 0 85 0 85 76 0
c68 0 75 -2 70 -17z m-656 -73 c0 -73 -2 -80 -20 -80 -18 0 -20 7 -20 73 0 76
4 87 27 87 10 0 13 -20 13 -80z m100 0 c0 -47 -4 -80 -10 -80 -6 0 -10 33 -10
80 0 47 4 80 10 80 6 0 10 -33 10 -80z m190 0 l0 -80 -80 0 -80 0 0 80 0 80
80 0 80 0 0 -80z m-580 -5 l0 -75 -55 0 c-63 0 -61 -2 -70 88 l-6 62 66 0 65
0 0 -75z m190 0 l0 -75 -75 0 -75 0 0 75 0 75 75 0 75 0 0 -75z m-190 -180 l0
-75 -44 0 c-49 0 -47 -3 -61 103 l-6 47 55 0 56 0 0 -75z m190 0 l0 -75 -75 0
-75 0 0 75 0 75 75 0 75 0 0 -75z m100 0 c0 -68 -2 -75 -20 -75 -18 0 -20 7
-20 75 0 68 2 75 20 75 18 0 20 -7 20 -75z m100 0 c0 -43 -4 -75 -10 -75 -6 0
-10 32 -10 75 0 43 4 75 10 75 6 0 10 -32 10 -75z m190 0 l0 -75 -80 0 -80 0
0 75 0 75 80 0 80 0 0 -75z m190 0 l0 -75 -80 0 -80 0 0 75 0 75 80 0 80 0 0
-75z m100 68 c0 -18 -54 -143 -62 -143 -4 0 -8 34 -8 75 l0 75 35 0 c19 0 35
-3 35 -7z m-870 -228 l0 -56 -37 7 c-21 4 -38 7 -39 8 -1 0 -4 22 -7 49 l-7
47 45 0 45 0 0 -55z m190 -5 l0 -60 -37 0 c-21 0 -55 3 -75 6 l-38 7 0 53 0
54 75 0 75 0 0 -60z m100 -5 c0 -58 -2 -65 -20 -65 -18 0 -20 7 -20 65 0 58 2
65 20 65 18 0 20 -7 20 -65z m100 -5 c0 -40 -4 -70 -10 -70 -6 0 -10 30 -10
70 0 40 4 70 10 70 6 0 10 -30 10 -70z m190 -5 l0 -75 -42 0 c-24 0 -60 3 -80
6 l-38 7 0 68 0 69 80 0 80 0 0 -75z m190 30 c0 -58 -27 -128 -47 -121 -8 3
-37 6 -64 6 l-49 0 0 80 0 80 80 0 80 0 0 -45z m-480 -311 c0 -124 -2 -135
-17 -132 -16 3 -18 19 -21 136 -2 127 -2 132 18 132 19 0 20 -6 20 -136z m324
110 l99 -7 76 -58 c96 -72 118 -93 126 -119 15 -48 1 -50 -281 -50 l-264 0 0
126 0 127 73 -7 c39 -3 117 -9 171 -12z m-586 -370 c24 -17 30 -62 10 -82 -17
-17 -64 -15 -82 4 -22 21 -20 50 4 74 24 24 38 25 68 4z m900 0 c24 -17 30
-62 10 -82 -20 -20 -76 -15 -88 7 -15 29 -12 49 10 71 24 24 38 25 68 4z"/>
<path d="M1506 4434 c-19 -18 -20 -28 -6 -55 10 -18 23 -19 180 -19 157 0 170
1 180 19 14 27 13 37 -6 55 -13 13 -43 16 -174 16 -131 0 -161 -3 -174 -16z"/>
<path d="M1635 2321 c-61 -27 -89 -103 -61 -163 56 -117 226 -74 226 57 0 51
-51 105 -105 110 -22 3 -49 1 -60 -4z"/>
<path d="M2044 2695 c-8 -21 2 -45 19 -45 8 0 20 7 27 15 10 12 10 18 0 30 -7
8 -19 15 -27 15 -7 0 -16 -7 -19 -15z"/>
<path d="M2944 2695 c-8 -21 2 -45 19 -45 8 0 20 7 27 15 10 12 10 18 0 30 -7
8 -19 15 -27 15 -7 0 -16 -7 -19 -15z"/>
<path d="M3664 3515 c-3 -8 -4 -83 -2 -168 4 -181 7 -190 77 -185 42 3 46 5
49 32 3 24 1 28 -13 22 -39 -14 -45 9 -45 165 l0 149 -30 0 c-18 0 -33 -6 -36
-15z"/>
<path d="M3377 3513 c-4 -3 -7 -84 -7 -180 l0 -173 125 0 125 0 0 30 0 30 -90
0 -90 0 0 45 0 45 75 0 75 0 0 30 0 30 -75 0 -75 0 0 40 0 40 85 0 85 0 0 35
0 35 -113 0 c-63 0 -117 -3 -120 -7z"/>
<path d="M4420 3465 c0 -33 -4 -45 -15 -45 -9 0 -15 -9 -15 -25 0 -16 6 -25
15 -25 12 0 15 -16 15 -88 0 -104 12 -122 76 -122 51 0 68 12 59 39 -4 15 -15
21 -36 21 l-29 0 0 75 c0 73 1 75 25 75 20 0 25 5 25 25 0 20 -5 25 -25 25
-23 0 -25 4 -25 45 0 45 0 45 -35 45 -35 0 -35 0 -35 -45z"/>
<path d="M3905 3420 c-75 -23 -117 -119 -81 -187 26 -51 62 -73 120 -73 81 0
155 58 94 73 -14 4 -29 0 -40 -10 -27 -24 -77 -21 -100 6 -10 13 -18 27 -18
32 0 5 45 9 100 9 l100 0 0 30 c0 86 -88 146 -175 120z m85 -60 c38 -38 27
-50 -45 -50 -73 0 -84 14 -39 49 33 26 58 27 84 1z"/>
<path d="M4183 3411 c-50 -23 -73 -63 -73 -127 0 -41 5 -51 39 -85 36 -36 43
-39 94 -39 45 0 61 5 86 26 17 14 31 29 31 34 0 17 -60 19 -89 2 -29 -16 -31
-16 -58 4 -37 28 -44 93 -14 123 25 25 63 27 81 6 15 -18 20 -18 54 -5 35 13
25 34 -28 60 -52 25 -69 25 -123 1z"/>
<path d="M4720 3419 c-13 -6 -33 -17 -42 -26 -17 -15 -18 -15 -18 5 0 18 -6
22 -30 22 l-30 0 0 -130 0 -130 35 0 35 0 0 84 c0 76 2 86 22 100 12 9 30 16
40 16 14 0 18 8 18 35 0 19 -1 35 -2 34 -2 0 -14 -5 -28 -10z"/>
<path d="M4863 3419 c-66 -19 -106 -103 -83 -173 18 -55 62 -86 121 -86 92 0
143 50 141 138 -1 91 -86 149 -179 121z m84 -64 c57 -40 25 -145 -43 -145 -26
0 -64 47 -64 80 0 35 38 80 67 80 10 0 28 -7 40 -15z"/>
<path d="M3357 2952 c-21 -23 -21 -41 -1 -70 12 -17 24 -22 50 -20 30 2 34 5
34 30 0 20 -5 28 -17 28 -15 0 -15 -2 -4 -9 19 -12 6 -41 -18 -41 -22 0 -51
25 -51 44 0 27 27 49 53 44 15 -3 24 -1 21 3 -9 16 -50 10 -67 -9z"/>
<path d="M3611 2958 c-1 -12 -9 -18 -26 -18 -31 0 -50 -32 -35 -60 8 -15 19
-19 43 -17 31 2 32 3 29 42 -4 51 -9 77 -11 53z m-3 -55 c-2 -20 -9 -28 -23
-28 -14 0 -21 8 -23 28 -3 23 0 27 23 27 23 0 26 -4 23 -27z"/>
<path d="M3842 2920 c3 -46 6 -55 23 -58 18 -2 18 -2 3 8 -19 12 -25 56 -9 62
5 2 3 12 -5 23 -14 18 -15 16 -12 -35z"/>
<path d="M4260 2952 c0 -13 -8 -17 -32 -17 -27 0 -34 -4 -36 -23 -5 -32 15
-53 49 -50 28 2 29 4 29 55 0 29 -2 53 -5 53 -3 0 -5 -8 -5 -18z m-5 -32 c11
-18 -6 -50 -26 -50 -22 0 -34 22 -25 45 6 17 42 20 51 5z"/>
<path d="M4361 2953 c-20 -40 -40 -93 -33 -93 7 0 19 26 37 75 6 17 11 12 30
-30 13 -27 24 -45 24 -39 1 13 -38 104 -44 104 -2 0 -8 -8 -14 -17z"/>
<path d="M3483 2933 c33 -5 36 -20 5 -25 -15 -2 -24 -11 -26 -26 -3 -20 0 -22
32 -20 30 2 36 6 36 24 0 41 -11 54 -44 53 -30 -2 -30 -2 -3 -6z m27 -48 c0
-8 -9 -15 -20 -15 -11 0 -20 7 -20 15 0 8 9 15 20 15 11 0 20 -7 20 -15z"/>
<path d="M3650 2920 c-16 -31 5 -63 37 -57 20 4 24 1 20 -14 -3 -11 -1 -17 4
-13 5 3 9 27 9 55 0 48 -1 49 -30 49 -19 0 -33 -7 -40 -20z m58 -17 c-2 -20
-9 -28 -23 -28 -14 0 -21 8 -23 28 -3 23 0 27 23 27 23 0 26 -4 23 -27z"/>
<path d="M3750 2925 c-28 -34 11 -77 52 -57 21 10 21 11 -8 5 -23 -3 -33 -1
-37 11 -5 13 1 16 29 16 28 0 35 4 32 17 -2 9 -9 18 -16 19 -7 1 -8 0 -2 -3
21 -10 9 -23 -22 -23 -31 1 -32 1 -14 15 11 8 15 15 9 15 -6 0 -16 -7 -23 -15z"/>
<path d="M3897 2933 c-13 -12 -7 -24 18 -33 33 -13 33 -34 -1 -27 -16 3 -22 1
-16 -5 14 -14 46 -6 50 13 2 9 -9 21 -25 28 -21 10 -24 14 -12 22 7 5 9 9 3 9
-6 0 -14 -3 -17 -7z"/>
<path d="M4033 2933 c33 -5 36 -20 5 -25 -15 -2 -24 -11 -26 -26 -3 -20 0 -22
32 -20 30 2 36 6 36 24 0 41 -11 54 -44 53 -30 -2 -30 -2 -3 -6z m27 -48 c0
-8 -9 -15 -20 -15 -11 0 -20 7 -20 15 0 8 9 15 20 15 11 0 20 -7 20 -15z"/>
<path d="M4101 2896 l2 -41 6 35 c4 26 12 36 28 38 18 3 22 -2 26 -35 l4 -38
-1 40 c-1 38 -3 40 -33 41 -32 1 -33 0 -32 -40z"/>
<path d="M4440 2920 c-15 -28 4 -60 35 -60 13 0 26 4 30 9 3 6 -7 9 -22 8 -24
-2 -28 2 -31 27 -3 27 -2 28 27 24 16 -2 28 -1 25 4 -10 16 -53 8 -64 -12z"/>
<path d="M4524 2915 c-4 -15 -1 -32 6 -40 13 -16 46 -20 54 -7 2 4 -8 8 -22 7
-22 0 -27 4 -27 25 0 21 5 25 28 25 15 -1 27 3 27 7 0 4 -13 8 -30 8 -23 0
-31 -5 -36 -25z"/>
<path d="M4617 2933 c-11 -11 -8 -48 5 -61 14 -14 44 -16 52 -4 2 4 -7 8 -21
7 -14 0 -28 6 -30 13 -3 8 7 12 31 12 39 0 45 10 19 31 -16 13 -17 12 -4 -3
12 -16 10 -18 -19 -18 -28 0 -31 2 -20 15 12 14 0 22 -13 8z"/>
<path d="M4710 2921 c0 -10 9 -21 20 -24 30 -8 25 -30 -5 -25 -13 3 -22 1 -19
-3 9 -15 52 -10 58 6 4 10 -3 20 -20 27 -14 7 -23 17 -20 25 3 7 1 13 -4 13
-6 0 -10 -8 -10 -19z"/>
<path d="M4787 2933 c-13 -12 -7 -24 18 -33 33 -13 33 -34 -1 -27 -16 3 -22 1
-16 -5 14 -14 46 -6 50 13 2 9 -9 21 -25 28 -21 10 -24 14 -12 22 7 5 9 9 3 9
-6 0 -14 -3 -17 -7z"/>
<path d="M4864 2926 c-15 -40 21 -80 54 -60 37 24 21 74 -25 74 -13 0 -26 -6
-29 -14z m61 -6 c11 -18 -6 -50 -26 -50 -22 0 -34 22 -25 45 6 17 42 20 51 5z"/>
<path d="M4961 2895 c2 -33 3 -35 6 -10 2 17 11 35 20 42 13 10 13 12 -6 10
-18 -1 -21 -7 -20 -42z"/>
<path d="M5013 2900 c0 -25 2 -35 4 -22 2 12 2 32 0 45 -2 12 -4 2 -4 -23z"/>
<path d="M5050 2925 c-28 -34 11 -77 52 -57 21 10 21 11 -8 5 -23 -3 -33 -1
-37 11 -5 13 1 16 29 16 28 0 35 4 32 17 -2 9 -9 18 -16 19 -7 1 -8 0 -2 -3
21 -10 9 -23 -22 -23 -31 1 -32 1 -14 15 11 8 15 15 9 15 -6 0 -16 -7 -23 -15z"/>
<path d="M5147 2933 c-13 -12 -7 -24 18 -33 14 -5 25 -15 25 -21 0 -7 -10 -9
-25 -7 -14 3 -25 1 -25 -4 0 -5 12 -8 27 -6 38 4 43 35 8 44 -17 4 -24 11 -21
20 6 15 3 18 -7 7z"/>
<path d="M3650 2840 c0 -5 5 -10 11 -10 5 0 7 5 4 10 -3 6 -8 10 -11 10 -2 0
-4 -4 -4 -10z"/>
</g>
</svg>
